<?xml version="1.0" encoding="UTF-8"?>
<svg width="48px" height="48px" viewBox="0 0 48 48" version="1.1" xmlns="http://www.w3.org/2000/svg" xmlns:xlink="http://www.w3.org/1999/xlink">
    <!-- Generator: Sketch 52.6 (67491) - http://www.bohemiancoding.com/sketch -->
    <title>aw-logo-white 2px</title>
    <desc>Created with Sketch.</desc>
    <g id="aw-logo-white-2px" stroke="none" stroke-width="1" fill="none" fill-rule="evenodd">
        <path d="M25.2308358,47.2499943 C37.5450845,46.6115619 47.25,36.4186324 47.25,24.0316505 C47.25,13.7306523 40.4907799,4.74469397 30.7872405,1.78773901 C30.0302684,1.55706727 29.2606179,1.36511436 28.4806369,1.21287015 C27.0154642,0.92688359 25.5172559,0.781650549 24,0.781650549 C11.1593796,0.781650549 0.75,11.1910301 0.75,24.0316505 C0.75,34.326846 7.50164457,43.3089683 17.1975167,46.2709114 C17.96053,46.5040005 18.7364488,46.6977399 19.5228666,46.8511145 C20.5893119,47.0591028 21.684999,47.1932686 22.7502231,47.2492563 L25.2308358,47.2499943 Z" id="Path" stroke="#FFFFFF" stroke-width="1.5" transform="translate(24.000000, 24.015825) rotate(195.000000) translate(-24.000000, -24.015825) "></path>
        <path d="M5.84031033,38.6685449 C10.1832303,36.2166163 13.680556,32.9142944 16.4134102,29.619911 L18.0527899,30.760583 L17.7829428,34.1825199 L21.922968,31.2767592 L23.6121914,33.0837668 L28.1454355,29.619911 L30.2111352,30.5269739 L32.5482818,29.619911 C36.3882829,34.1825199 38.5768416,36.0644349 42.2924228,38.314881" id="Path-3" stroke="#FFFFFF" stroke-width="1.5"></path>
        <polyline id="Path-3" stroke="#FFFFFF" stroke-width="1.5" points="18.2833797 27.2620472 20.948759 23.587443 29.5359057 23.1870052 31.178256 26.9251294"></polyline>
    </g>
</svg>