<?xml version="1.0" encoding="UTF-8"?>
<svg width="1319px" height="159px" viewBox="0 0 1319 159" version="1.1" xmlns="http://www.w3.org/2000/svg" xmlns:xlink="http://www.w3.org/1999/xlink">
    <!-- Generator: Sketch 54.1 (76490) - https://sketchapp.com -->
    <title>ZanderWang</title>
    <desc>Created with Sketch.</desc>
    <g id="Zander.Wang" stroke="none" stroke-width="1" fill="none" fill-rule="evenodd" opacity="0.1">
        <g id="2.-Homepage-First-Screen" transform="translate(-63.000000, -641.000000)" fill="#FFFFFF" fill-rule="nonzero">
            <path d="M151.198475,779.11413 L197.988116,779.11413 L197.988116,807.391304 L63,807.391304 L63,781.684783 L125.69812,704.798913 C135.991893,692.335083 146.129547,680.338826 156.111387,668.809783 C134.588044,669.121378 118.523761,669.277174 107.918056,669.277174 L66.2752749,669.277174 L66.2752749,641 L196.584427,641 L196.584427,666.472826 L133.418411,743.592391 C123.124638,756.056222 112.986984,768.052479 103.005144,779.581522 C124.528486,779.269926 140.592769,779.11413 151.198475,779.11413 Z M315.430117,807.391304 L285.952643,807.391304 C284.39298,804.586943 283.301233,799.679383 282.677368,792.668478 C274.411156,804.353319 261.466152,810.195652 243.841965,810.195652 C230.7408,810.195652 220.213236,807.040792 212.258957,800.730978 C204.304678,794.421164 200.327598,785.501869 200.327598,773.972826 C200.327598,751.849527 215.768026,739.307986 246.649344,736.347826 L264.897304,734.711957 C270.824022,733.932967 275.15202,732.530807 277.88143,730.505435 C280.610839,728.480062 281.975523,725.286254 281.975523,720.923913 C281.975523,715.938381 280.337902,712.199288 277.062611,709.706522 C273.78732,707.213756 268.094637,705.967391 259.984392,705.967391 C251.406248,705.967391 245.245673,707.369551 241.502483,710.173913 C237.759293,712.978275 235.575798,717.963732 234.951933,725.130435 L205.942355,725.130435 C207.657984,697.710008 225.749798,684 260.21834,684 C293.751084,684 310.517205,696.074155 310.517205,720.222826 L310.517205,784.48913 C310.517205,795.083386 312.154826,802.717368 315.430117,807.391304 Z M250.860411,789.163043 C259.594522,789.163043 266.963816,786.709264 272.968517,781.80163 C278.973218,776.893997 281.975523,769.532658 281.975523,759.717391 L281.975523,748.733696 C279.168131,751.226462 274.567195,752.862315 268.172579,753.641304 L252.264101,755.51087 C244.309822,756.445657 238.695121,758.315203 235.41983,761.119565 C232.144538,763.923927 230.506917,767.818816 230.506917,772.804348 C230.506917,777.945678 232.22252,781.957413 235.653778,784.839674 C239.085035,787.721935 244.153863,789.163043 250.860411,789.163043 Z M389.825647,684 C402.770846,684 413.064465,687.739093 420.706811,695.217391 C428.349157,702.69569 432.170273,713.445582 432.170273,727.467391 L432.170273,807.391304 L402.692799,807.391304 L402.692799,732.375 C402.692799,717.106808 395.128549,709.472826 379.999823,709.472826 C372.825375,709.472826 366.547828,712.043453 361.166992,717.184783 C355.786156,722.326113 353.095779,729.882197 353.095779,739.853261 L353.095779,807.391304 L323.618304,807.391304 L323.618304,686.804348 L352.159986,686.804348 L352.159986,704.097826 C361.206028,690.699208 373.761123,684 389.825647,684 Z M532.768003,641 L562.245477,641 L562.245477,807.391304 L533.703796,807.391304 L533.703796,790.565217 C524.813719,803.652239 512.10266,810.195652 495.570238,810.195652 C478.881849,810.195652 465.663907,804.470166 455.916016,793.019022 C446.168126,781.567878 441.294253,766.260965 441.294253,747.097826 C441.294253,727.934687 446.168126,712.627775 455.916016,701.17663 C465.663907,689.725486 478.881849,684 495.570238,684 C511.790728,684 524.189859,690.153924 532.768003,702.461957 L532.768003,641 Z M479.661759,776.309783 C485.120578,782.697496 492.684828,785.891304 502.354736,785.891304 C512.024643,785.891304 519.627884,782.580649 525.164686,775.959239 C530.701488,769.337829 533.469847,759.717454 533.469847,747.097826 C533.469847,734.478198 530.701488,724.857823 525.164686,718.236413 C519.627884,711.615003 512.024643,708.304348 502.354736,708.304348 C492.840794,708.304348 485.315536,711.770799 479.778734,718.703804 C474.241932,725.63681 471.473572,735.41298 471.473572,748.032609 C471.473572,760.496439 474.202941,769.92207 479.661759,776.309783 Z M690.683044,749.201087 L690.683044,756.211957 L600.379035,756.211957 C601.470799,766.650415 604.746041,774.440192 610.20486,779.581522 C615.663679,784.722852 622.838019,787.293478 631.728095,787.293478 C645.297159,787.293478 654.49903,781.529043 659.333984,770 L687.641717,770 C684.522392,782.308033 677.971908,792.084203 667.990067,799.328804 C658.008227,806.573406 645.843042,810.195652 631.494147,810.195652 C613.558028,810.195652 599.053384,804.470166 587.97978,793.019022 C576.906176,781.567878 571.369457,766.260965 571.369457,747.097826 C571.369457,728.246283 576.828194,713.017268 587.745832,701.410326 C598.66347,689.803384 613.090131,684 631.02625,684 C649.274302,684 663.778946,689.998128 674.540617,701.994565 C685.302289,713.991002 690.683044,729.726352 690.683044,749.201087 Z M630.792302,706.902174 C622.682057,706.902174 615.975609,709.278056 610.672756,714.029891 C605.369904,718.781727 602.01668,725.987271 600.612983,735.646739 L661.205569,735.646739 C659.957839,726.922058 656.721588,719.950207 651.496719,714.730978 C646.271849,709.511749 639.370446,706.902174 630.792302,706.902174 Z M764.844626,684.934783 C767.963951,684.934783 770.381391,685.090578 772.09702,685.402174 L772.09702,712.51087 L764.610678,712.51087 C753.537074,712.51087 744.959058,715.315189 738.876375,720.923913 C732.793691,726.532637 729.752394,734.945596 729.752394,746.163043 L729.752394,807.391304 L700.27492,807.391304 L700.27492,686.804348 L728.816602,686.804348 L728.816602,708.304348 C735.52315,692.72456 747.532372,684.934783 764.844626,684.934783 Z M1003.93969,641 L1036.69244,641 L990.604647,807.391304 L955.044519,807.391304 L937.264455,738.217391 C930.869839,711.88755 926.346886,692.257311 923.695459,679.326087 C919.796303,698.333428 915.27335,717.963667 910.126463,738.217391 L892.346399,807.391304 L857.02022,807.391304 L810.698475,641 L843.685172,641 L860.997339,708.070652 C868.795652,739.230228 873.864479,760.340524 876.203973,771.402174 C880.415062,751.460045 885.171961,730.271851 890.474814,707.836957 L907.553033,641 L940.071834,641 L957.150053,707.836957 C961.517108,725.597915 966.196026,746.864007 971.186946,771.63587 C974.930136,754.809698 979.998963,733.621505 986.393579,708.070652 L1003.93969,641 Z M1135.18464,807.391304 L1105.70717,807.391304 C1104.1475,804.586943 1103.05576,799.679383 1102.43189,792.668478 C1094.16568,804.353319 1081.22067,810.195652 1063.59649,810.195652 C1050.49532,810.195652 1039.96776,807.040792 1032.01348,800.730978 C1024.0592,794.421164 1020.08212,785.501869 1020.08212,773.972826 C1020.08212,751.849527 1035.52255,739.307986 1066.40387,736.347826 L1084.65183,734.711957 C1090.57854,733.932967 1094.90654,732.530807 1097.63595,730.505435 C1100.36536,728.480062 1101.73005,725.286254 1101.73005,720.923913 C1101.73005,715.938381 1100.09243,712.199288 1096.81713,709.706522 C1093.54184,707.213756 1087.84916,705.967391 1079.73891,705.967391 C1071.16077,705.967391 1065.0002,707.369551 1061.25701,710.173913 C1057.51382,712.978275 1055.33032,717.963732 1054.70646,725.130435 L1025.69688,725.130435 C1027.41251,697.710008 1045.50432,684 1079.97286,684 C1113.50561,684 1130.27173,696.074155 1130.27173,720.222826 L1130.27173,784.48913 C1130.27173,795.083386 1131.90935,802.717368 1135.18464,807.391304 Z M1070.61493,789.163043 C1079.34904,789.163043 1086.71834,786.709264 1092.72304,781.80163 C1098.72774,776.893997 1101.73005,769.532658 1101.73005,759.717391 L1101.73005,748.733696 C1098.92265,751.226462 1094.32172,752.862315 1087.9271,753.641304 L1072.01862,755.51087 C1064.06434,756.445657 1058.44964,758.315203 1055.17435,761.119565 C1051.89906,763.923927 1050.26144,767.818816 1050.26144,772.804348 C1050.26144,777.945678 1051.97704,781.957413 1055.4083,784.839674 C1058.83956,787.721935 1063.90839,789.163043 1070.61493,789.163043 Z M1209.58017,684 C1222.52537,684 1232.81899,687.739093 1240.46133,695.217391 C1248.10368,702.69569 1251.9248,713.445582 1251.9248,727.467391 L1251.9248,807.391304 L1222.44732,807.391304 L1222.44732,732.375 C1222.44732,717.106808 1214.88307,709.472826 1199.75435,709.472826 C1192.5799,709.472826 1186.30235,712.043453 1180.92151,717.184783 C1175.54068,722.326113 1172.8503,729.882197 1172.8503,739.853261 L1172.8503,807.391304 L1143.37283,807.391304 L1143.37283,686.804348 L1171.91451,686.804348 L1171.91451,704.097826 C1180.96055,690.699208 1193.51565,684 1209.58017,684 Z M1353.45832,686.804348 L1382,686.804348 L1382,803.418478 C1382,819.621458 1376.89218,832.435641 1366.67639,841.861413 C1356.4606,851.287185 1341.68302,856 1322.34321,856 C1305.34289,856 1292.08595,852.221958 1282.57201,844.665761 C1273.05807,837.109564 1267.83328,826.866007 1266.89748,813.934783 L1295.90706,813.934783 C1297.31076,826.866007 1306.27868,833.331522 1322.8111,833.331522 C1332.48101,833.331522 1339.85031,830.838793 1344.91921,825.853261 C1349.98811,820.867729 1352.52253,813.623236 1352.52253,804.119565 L1352.52253,788.929348 C1343.94438,800.925785 1331.62323,806.923913 1315.55871,806.923913 C1299.18225,806.923913 1286.0033,801.276325 1276.02146,789.980978 C1266.03962,778.685632 1261.04878,763.846106 1261.04878,745.461957 C1261.04878,726.922009 1266.00063,712.043534 1275.90449,700.826087 C1285.80834,689.60864 1298.9483,684 1315.32476,684 C1332.32508,684 1345.03614,690.465515 1353.45832,703.396739 L1353.45832,686.804348 Z M1322.10926,782.619565 C1331.77917,782.619565 1339.38241,779.386808 1344.91921,772.921196 C1350.45601,766.455584 1353.22437,757.302595 1353.22437,745.461957 C1353.22437,733.621318 1350.45601,724.468329 1344.91921,718.002717 C1339.38241,711.537105 1331.77917,708.304348 1322.10926,708.304348 C1312.59532,708.304348 1305.07006,711.615003 1299.53326,718.236413 C1293.99645,724.857823 1291.2281,734.010811 1291.2281,745.695652 C1291.2281,757.224695 1293.99645,766.260837 1299.53326,772.804348 C1305.07006,779.347859 1312.59532,782.619565 1322.10926,782.619565 Z" id="ZanderWang"></path>
        </g>
    </g>
</svg>