<?xml version="1.0" encoding="UTF-8"?>
<svg width="1535px" height="244px" viewBox="0 0 1535 244" version="1.1" xmlns="http://www.w3.org/2000/svg" xmlns:xlink="http://www.w3.org/1999/xlink">
    <!-- Generator: Sketch 52.2 (67145) - http://www.bohemiancoding.com/sketch -->
    <title>Slice</title>
    <desc>Created with Sketch.</desc>
    <g id="Zander.Wang" stroke="none" stroke-width="1" fill="none" fill-rule="evenodd" opacity="0.1">
        <path d="M127.02,153.66 L179.02,153.66 L179.02,185.12 L29,185.12 L29,156.52 L98.68,70.98 C110.120057,57.113264 121.386611,43.7667308 132.48,30.94 C108.55988,31.2866684 90.7067256,31.46 78.92,31.46 L32.64,31.46 L32.64,0 L177.46,0 L177.46,28.34 L107.26,114.14 C95.8199428,128.006736 84.5533888,141.353269 73.46,154.18 C97.3801196,153.833332 115.233274,153.66 127.02,153.66 Z M309.54,185.12 L276.78,185.12 C275.046658,181.999984 273.833337,176.540039 273.14,168.74 C263.953287,181.740065 249.566765,188.24 229.98,188.24 C215.419927,188.24 203.720044,184.730035 194.88,177.71 C186.039956,170.689965 181.62,160.766731 181.62,147.94 C181.62,123.326544 198.779828,109.37335 233.1,106.08 L253.38,104.26 C259.9667,103.393329 264.776652,101.833345 267.81,99.58 C270.843348,97.3266554 272.36,93.7733576 272.36,88.92 C272.36,83.3733056 270.540018,79.2133472 266.9,76.44 C263.259982,73.6666528 256.933378,72.28 247.92,72.28 C238.386619,72.28 231.540021,73.8399844 227.38,76.96 C223.219979,80.0800156 220.793337,85.6266268 220.1,93.6 L187.86,93.6 C189.766676,63.0931808 209.873142,47.84 248.18,47.84 C285.446853,47.84 304.08,61.273199 304.08,88.14 L304.08,159.64 C304.08,171.426726 305.899982,179.919974 309.54,185.12 Z M237.78,164.84 C247.486715,164.84 255.676633,162.110027 262.35,156.65 C269.023367,151.189973 272.36,143.000055 272.36,132.08 L272.36,119.86 C269.239984,122.633347 264.126702,124.453329 257.02,125.32 L239.34,127.4 C230.499956,128.440005 224.260018,130.519984 220.62,133.64 C216.979982,136.760016 215.16,141.093306 215.16,146.64 C215.16,152.360029 217.066648,156.823317 220.88,160.03 C224.693352,163.236683 230.326629,164.84 237.78,164.84 Z M392.22,47.84 C406.606739,47.84 418.046624,51.9999584 426.54,60.32 C435.033376,68.6400416 439.28,80.599922 439.28,96.2 L439.28,185.12 L406.52,185.12 L406.52,101.66 C406.52,84.6732484 398.113417,76.18 381.3,76.18 C373.326627,76.18 366.35003,79.0399714 360.37,84.76 C354.38997,90.4800286 351.4,98.8866112 351.4,109.98 L351.4,185.12 L318.64,185.12 L318.64,50.96 L350.36,50.96 L350.36,70.2 C360.413384,55.2932588 374.366577,47.84 392.22,47.84 Z M551.08,0 L583.84,0 L583.84,185.12 L552.12,185.12 L552.12,166.4 C542.239951,180.960073 528.113425,188.24 509.74,188.24 C491.193241,188.24 476.503388,181.870064 465.67,169.13 C454.836613,156.389936 449.42,139.360107 449.42,118.04 C449.42,96.7198934 454.836613,79.6900637 465.67,66.95 C476.503388,54.2099363 491.193241,47.84 509.74,47.84 C527.766757,47.84 541.546619,54.6865982 551.08,68.38 L551.08,0 Z M492.06,150.54 C498.126697,157.646702 506.53328,161.2 517.28,161.2 C528.02672,161.2 536.476636,157.516704 542.63,150.15 C548.783364,142.783297 551.86,132.08007 551.86,118.04 C551.86,103.99993 548.783364,93.2967035 542.63,85.93 C536.476636,78.5632965 528.02672,74.88 517.28,74.88 C506.706614,74.88 498.343364,78.7366281 492.19,86.45 C486.036636,94.1633719 482.96,105.03993 482.96,119.08 C482.96,132.946736 485.993303,143.433298 492.06,150.54 Z M726.58,120.38 L726.58,128.18 L626.22,128.18 C627.433339,139.793391 631.073303,148.459971 637.14,154.18 C643.206697,159.900029 651.179951,162.76 661.06,162.76 C676.140075,162.76 686.36664,156.346731 691.74,143.52 L723.2,143.52 C719.733316,157.213402 712.453389,168.08996 701.36,176.15 C690.266611,184.21004 676.746746,188.24 660.8,188.24 C640.866567,188.24 624.746728,181.870064 612.44,169.13 C600.133272,156.389936 593.98,139.360107 593.98,118.04 C593.98,97.0665618 600.046606,80.1233979 612.18,67.21 C624.313394,54.2966021 640.346567,47.84 660.28,47.84 C680.560101,47.84 696.67994,54.5132666 708.64,67.86 C720.60006,81.2067334 726.58,98.713225 726.58,120.38 Z M660.02,73.32 C651.006622,73.32 643.553363,75.9633069 637.66,81.25 C631.766637,86.5366931 628.040008,94.5532796 626.48,105.3 L693.82,105.3 C692.433326,95.5932848 688.836696,87.8366957 683.03,82.03 C677.223304,76.2233043 669.553381,73.32 660.02,73.32 Z M809,48.88 C812.466684,48.88 815.153324,49.0533316 817.06,49.4 L817.06,79.56 L808.74,79.56 C796.433272,79.56 786.900034,82.6799688 780.14,88.92 C773.379966,95.1600312 770,104.519938 770,117 L770,185.12 L737.24,185.12 L737.24,50.96 L768.96,50.96 L768.96,74.88 C776.413371,57.54658 789.759904,48.88 809,48.88 Z M1074.72,0 L1111.12,0 L1059.9,185.12 L1020.38,185.12 L1000.62,108.16 C993.513298,78.8665202 988.486681,57.0267386 985.54,42.64 C981.206645,63.7867724 976.180029,85.626554 970.46,108.16 L950.7,185.12 L911.44,185.12 L859.96,0 L896.62,0 L915.86,74.62 C924.52671,109.28684 930.159987,132.773272 932.76,145.08 C937.440023,122.893222 942.726637,99.3201248 948.62,74.36 L967.6,0 L1003.74,0 L1022.72,74.36 C1027.57336,94.1200988 1032.77331,117.779862 1038.32,145.34 C1042.48002,126.619906 1048.1133,103.046809 1055.22,74.62 L1074.72,0 Z M1220.58,185.12 L1187.82,185.12 C1186.08666,181.999984 1184.87334,176.540039 1184.18,168.74 C1174.99329,181.740065 1160.60676,188.24 1141.02,188.24 C1126.45993,188.24 1114.76004,184.730035 1105.92,177.71 C1097.07996,170.689965 1092.66,160.766731 1092.66,147.94 C1092.66,123.326544 1109.81983,109.37335 1144.14,106.08 L1164.42,104.26 C1171.0067,103.393329 1175.81665,101.833345 1178.85,99.58 C1181.88335,97.3266554 1183.4,93.7733576 1183.4,88.92 C1183.4,83.3733056 1181.58002,79.2133472 1177.94,76.44 C1174.29998,73.6666528 1167.97338,72.28 1158.96,72.28 C1149.42662,72.28 1142.58002,73.8399844 1138.42,76.96 C1134.25998,80.0800156 1131.83334,85.6266268 1131.14,93.6 L1098.9,93.6 C1100.80668,63.0931808 1120.91314,47.84 1159.22,47.84 C1196.48685,47.84 1215.12,61.273199 1215.12,88.14 L1215.12,159.64 C1215.12,171.426726 1216.93998,179.919974 1220.58,185.12 Z M1148.82,164.84 C1158.52672,164.84 1166.71663,162.110027 1173.39,156.65 C1180.06337,151.189973 1183.4,143.000055 1183.4,132.08 L1183.4,119.86 C1180.27998,122.633347 1175.1667,124.453329 1168.06,125.32 L1150.38,127.4 C1141.53996,128.440005 1135.30002,130.519984 1131.66,133.64 C1128.01998,136.760016 1126.2,141.093306 1126.2,146.64 C1126.2,152.360029 1128.10665,156.823317 1131.92,160.03 C1135.73335,163.236683 1141.36663,164.84 1148.82,164.84 Z M1303.26,47.84 C1317.64674,47.84 1329.08662,51.9999584 1337.58,60.32 C1346.07338,68.6400416 1350.32,80.599922 1350.32,96.2 L1350.32,185.12 L1317.56,185.12 L1317.56,101.66 C1317.56,84.6732484 1309.15342,76.18 1292.34,76.18 C1284.36663,76.18 1277.39003,79.0399714 1271.41,84.76 C1265.42997,90.4800286 1262.44,98.8866112 1262.44,109.98 L1262.44,185.12 L1229.68,185.12 L1229.68,50.96 L1261.4,50.96 L1261.4,70.2 C1271.45338,55.2932588 1285.40658,47.84 1303.26,47.84 Z M1463.16,50.96 L1494.88,50.96 L1494.88,180.7 C1494.88,198.726757 1489.20339,212.983281 1477.85,223.47 C1466.49661,233.956719 1450.07344,239.2 1428.58,239.2 C1409.68657,239.2 1394.95339,234.996709 1384.38,226.59 C1373.80661,218.183291 1368.00001,206.786739 1366.96,192.4 L1399.2,192.4 C1400.76001,206.786739 1410.72657,213.98 1429.1,213.98 C1439.84672,213.98 1448.03664,211.206694 1453.67,205.66 C1459.30336,200.113306 1462.12,192.053386 1462.12,181.48 L1462.12,164.58 C1452.58662,177.926733 1438.89342,184.6 1421.04,184.6 C1402.83991,184.6 1388.19339,178.316729 1377.1,165.75 C1366.00661,153.183271 1360.46,136.673436 1360.46,116.22 C1360.46,95.5932302 1365.96328,79.0400624 1376.97,66.56 C1387.97672,54.0799376 1402.57991,47.84 1420.78,47.84 C1439.67343,47.84 1453.79995,55.0332614 1463.16,69.42 L1463.16,50.96 Z M1428.32,157.56 C1439.06672,157.56 1447.51664,153.963369 1453.67,146.77 C1459.82336,139.576631 1462.9,129.393399 1462.9,116.22 C1462.9,103.046601 1459.82336,92.8633693 1453.67,85.67 C1447.51664,78.4766307 1439.06672,74.88 1428.32,74.88 C1417.74661,74.88 1409.38336,78.5632965 1403.23,85.93 C1397.07664,93.2967035 1394,103.479935 1394,116.48 C1394,129.306731 1397.07664,139.359964 1403.23,146.64 C1409.38336,153.920036 1417.74661,157.56 1428.32,157.56 Z" id="ZanderWang" fill="#FFFFFF" fill-rule="nonzero"></path>
    </g>
</svg>