<?xml version="1.0" encoding="UTF-8"?>
<svg width="184px" height="200px" viewBox="0 0 184 200" version="1.1" xmlns="http://www.w3.org/2000/svg" xmlns:xlink="http://www.w3.org/1999/xlink">
    <!-- Generator: Sketch 52.2 (67145) - http://www.bohemiancoding.com/sketch -->
    <title>logo</title>
    <desc>Created with Sketch.</desc>
    <g id="Zander.Wang" stroke="none" stroke-width="1" fill="none" fill-rule="evenodd">
        <g id="1.-Homepage-Loading---b" transform="translate(-612.000000, -286.000000)">
            <g id="logo" transform="translate(612.000000, 286.000000)">
                <g id="Group" stroke="#FFFFFF" stroke-width="5.16795866">
                    <path d="M6.6220094,148.277553 L92.0164816,196.724216 L178.234981,148.277558 L92.0164732,99.9197123 L6.6220094,148.277553 Z" id="Path-7-Copy"></path>
                    <path d="M179.618902,52.3364438 L92.9434205,3.57246916 L3.95094769,146.746299 L91.1872154,196.207751 L179.618902,52.3364438 Z" id="Path-11"></path>
                    <path d="M6.6220094,51.3239239 L92.0164816,99.7705864 L178.234981,51.3239286 L92.0164732,2.96608317 L6.6220094,51.3239239 Z" id="Path-7"></path>
                </g>
                <polygon id="Path-16" fill="#FFFFFF" points="5.16853933 52.7923479 93.8501348 3.10077519 49.5093371 78.4619183"></polygon>
                <polygon id="Path-16-Copy" fill="#FFFFFF" points="90.9662921 98.78718 179.647888 49.0956072 135.30709 124.45675"></polygon>
                <polygon id="Path-16-Copy-2" fill="#FFFFFF" transform="translate(135.307090, 160.677988) rotate(180.000000) translate(-135.307090, -160.677988) " points="90.9662921 172.688989 179.647888 122.997416 135.30709 198.358559"></polygon>
                <polygon id="Path-16-Copy-3" fill="#FFFFFF" transform="translate(48.475629, 112.099176) rotate(180.000000) translate(-48.475629, -112.099176) " points="4.13483146 124.110177 92.816427 74.4186047 48.4756292 149.779748"></polygon>
            </g>
        </g>
    </g>
</svg>